<svg xmlns="http://www.w3.org/2000/svg" viewBox="0 0 16 16">
    <title>Octicons (16px subset)</title>
    <desc>Octicons v11.2.0 by GitHub - https://primer.style/octicons/ - License: MIT</desc>
    <metadata
            xmlns:dc="http://purl.org/dc/elements/1.1/"
            xmlns:cc="http://creativecommons.org/ns#"
            xmlns:rdf="http://www.w3.org/1999/02/22-rdf-syntax-ns#">
        <rdf:RDF>
            <cc:Work rdf:about="">
                <dc:title>@primer/octicons</dc:title>
                <dc:identifier>11.2.0</dc:identifier>
                <dc:description>A scalable set of icons handcrafted with &lt;3 by GitHub</dc:description>
                <dc:format>image/svg+xml</dc:format>
                <dc:creator>
                    <cc:Agent>
                        <dc:title>GitHub</dc:title>
                    </cc:Agent>
                </dc:creator>
                <dc:rights>
                    <cc:Agent>
                        <dc:title>Copyright (c) 2020 GitHub Inc.</dc:title>
                    </cc:Agent>
                </dc:rights>
                <cc:license rdf:resource="https://opensource.org/licenses/MIT"/>
                <dc:relation>https://primer.style/octicons/</dc:relation>
            </cc:Work>
        </rdf:RDF>
    </metadata>
    <symbol id="icon-alert" viewBox="0 0 16 16">
        <path d="M8.22 1.754a.25.25 0 00-.44 0L1.698 13.132a.25.25 0 00.22.368h12.164a.25.25 0 00.22-.368L8.22 1.754zm-1.763-.707c.659-1.234 2.427-1.234 3.086 0l6.082 11.378A1.75 1.75 0 0114.082 15H1.918a1.75 1.75 0 01-1.543-2.575L6.457 1.047zM9 11a1 1 0 11-2 0 1 1 0 012 0zm-.25-5.25a.75.75 0 00-1.5 0v2.5a.75.75 0 001.5 0v-2.5z" fill-rule="evenodd"/>
    </symbol>

    <!-- icon-chevron-down has been modified to center the symbol on the vertical axis -->
    <symbol id="icon-chevron-down" viewBox="0 0 16 16">
        <path d="m12.78 5.345a0.75 0.75 0 0 1 0 1.06l-4.25 4.25a0.75 0.75 0 0 1-1.06 0l-4.25-4.25a0.75 0.75 0 0 1 1.06-1.06l3.72 3.72 3.72-3.72a0.75 0.75 0 0 1 1.06 0z" fill-rule="evenodd"/>
    </symbol>

    <!-- icon-chevron-right has been modified to center the symbol on the vertical axis -->
    <symbol id="icon-chevron-right" viewBox="0 0 16 16">
        <path d="m5.345 3.22a0.75 0.75 0 0 1 1.06 0l4.25 4.25a0.75 0.75 0 0 1 0 1.06l-4.25 4.25a0.75 0.75 0 0 1-1.06-1.06l3.72-3.72-3.72-3.72a0.75 0.75 0 0 1 0-1.06z" fill-rule="evenodd"/>
    </symbol>

    <symbol id="icon-clippy" viewBox="0 0 16 16">
        <path d="M5.75 1a.75.75 0 00-.75.75v3c0 .414.336.75.75.75h4.5a.75.75 0 00.75-.75v-3a.75.75 0 00-.75-.75h-4.5zm.75 3V2.5h3V4h-3zm-2.874-.467a.75.75 0 00-.752-1.298A1.75 1.75 0 002 3.75v9.5c0 .966.784 1.75 1.75 1.75h8.5A1.75 1.75 0 0014 13.25v-9.5a1.75 1.75 0 00-.874-1.515.75.75 0 10-.752 1.298.25.25 0 01.126.217v9.5a.25.25 0 01-.25.25h-8.5a.25.25 0 01-.25-.25v-9.5a.25.25 0 01.126-.217z" fill-rule="evenodd"/>
    </symbol>

    <symbol id="icon-comment-discussion" viewBox="0 0 16 16">
        <path d="M1.5 2.75a.25.25 0 01.25-.25h8.5a.25.25 0 01.25.25v5.5a.25.25 0 01-.25.25h-3.5a.75.75 0 00-.53.22L3.5 11.44V9.25a.75.75 0 00-.75-.75h-1a.25.25 0 01-.25-.25v-5.5zM1.75 1A1.75 1.75 0 000 2.75v5.5C0 9.216.784 10 1.75 10H2v1.543a1.457 1.457 0 002.487 1.03L7.061 10h3.189A1.75 1.75 0 0012 8.25v-5.5A1.75 1.75 0 0010.25 1h-8.5zM14.5 4.75a.25.25 0 00-.25-.25h-.5a.75.75 0 110-1.5h.5c.966 0 1.75.784 1.75 1.75v5.5A1.75 1.75 0 0114.25 12H14v1.543a1.457 1.457 0 01-2.487 1.03L9.22 12.28a.75.75 0 111.06-1.06l2.22 2.22v-2.19a.75.75 0 01.75-.75h1a.25.25 0 00.25-.25v-5.5z" fill-rule="evenodd"/>
    </symbol>

    <symbol id="icon-flame" viewBox="0 0 16 16">
        <path d="M7.998 14.5c2.832 0 5-1.98 5-4.5 0-1.463-.68-2.19-1.879-3.383l-.036-.037c-1.013-1.008-2.3-2.29-2.834-4.434-.322.256-.63.579-.864.953-.432.696-.621 1.58-.046 2.73.473.947.67 2.284-.278 3.232-.61.61-1.545.84-2.403.633a2.788 2.788 0 01-1.436-.874A3.21 3.21 0 003 10c0 2.53 2.164 4.5 4.998 4.5zM9.533.753C9.496.34 9.16.009 8.77.146 7.035.75 4.34 3.187 5.997 6.5c.344.689.285 1.218.003 1.5-.419.419-1.54.487-2.04-.832-.173-.454-.659-.762-1.035-.454C2.036 7.44 1.5 8.702 1.5 10c0 3.512 2.998 6 6.498 6s6.5-2.5 6.5-6c0-2.137-1.128-3.26-2.312-4.438-1.19-1.184-2.436-2.425-2.653-4.81z" fill-rule="evenodd"/>
    </symbol>

    <symbol id="icon-hash" viewBox="0 0 16 16">
        <path d="M6.368 1.01a.75.75 0 01.623.859L6.57 4.5h3.98l.46-2.868a.75.75 0 011.48.237L12.07 4.5h2.18a.75.75 0 010 1.5h-2.42l-.64 4h2.56a.75.75 0 010 1.5h-2.8l-.46 2.869a.75.75 0 01-1.48-.237l.42-2.632H5.45l-.46 2.869a.75.75 0 01-1.48-.237l.42-2.632H1.75a.75.75 0 010-1.5h2.42l.64-4H2.25a.75.75 0 010-1.5h2.8l.46-2.868a.75.75 0 01.858-.622zM9.67 10l.64-4H6.33l-.64 4h3.98z" fill-rule="evenodd"/>
    </symbol>

    <symbol id="icon-info" viewBox="0 0 16 16">
        <path d="M8 1.5a6.5 6.5 0 100 13 6.5 6.5 0 000-13zM0 8a8 8 0 1116 0A8 8 0 010 8zm6.5-.25A.75.75 0 017.25 7h1a.75.75 0 01.75.75v2.75h.25a.75.75 0 010 1.5h-2a.75.75 0 010-1.5h.25v-2h-.25a.75.75 0 01-.75-.75zM8 6a1 1 0 100-2 1 1 0 000 2z" fill-rule="evenodd"/>
    </symbol>

    <symbol id="icon-light-bulb" viewBox="0 0 16 16">
        <path d="M8 1.5c-2.363 0-4 1.69-4 3.75 0 .984.424 1.625.984 2.304l.214.253c.223.264.47.556.673.848.284.411.537.896.621 1.49a.75.75 0 01-1.484.211c-.04-.282-.163-.547-.37-.847a8.695 8.695 0 00-.542-.68c-.084-.1-.173-.205-.268-.32C3.201 7.75 2.5 6.766 2.5 5.25 2.5 2.31 4.863 0 8 0s5.5 2.31 5.5 5.25c0 1.516-.701 2.5-1.328 3.259-.095.115-.184.22-.268.319-.207.245-.383.453-.541.681-.208.3-.33.565-.37.847a.75.75 0 01-1.485-.212c.084-.593.337-1.078.621-1.489.203-.292.45-.584.673-.848.075-.088.147-.173.213-.253.561-.679.985-1.32.985-2.304 0-2.06-1.637-3.75-4-3.75zM6 15.25a.75.75 0 01.75-.75h2.5a.75.75 0 010 1.5h-2.5a.75.75 0 01-.75-.75zM5.75 12a.75.75 0 000 1.5h4.5a.75.75 0 000-1.5h-4.5z" fill-rule="evenodd"/>
    </symbol>

    <symbol id="icon-mail" viewBox="0 0 16 16">
        <path d="M1.75 2A1.75 1.75 0 000 3.75v.736a.75.75 0 000 .027v7.737C0 13.216.784 14 1.75 14h12.5A1.75 1.75 0 0016 12.25v-8.5A1.75 1.75 0 0014.25 2H1.75zM14.5 4.07v-.32a.25.25 0 00-.25-.25H1.75a.25.25 0 00-.25.25v.32L8 7.88l6.5-3.81zm-13 1.74v6.441c0 .138.112.25.25.25h12.5a.25.25 0 00.25-.25V5.809L8.38 9.397a.75.75 0 01-.76 0L1.5 5.809z" fill-rule="evenodd"/>
    </symbol>

    <symbol id="icon-mark-github" viewBox="0 0 16 16">
        <path d="M8 0C3.58 0 0 3.58 0 8c0 3.54 2.29 6.53 5.47 7.59.4.07.55-.17.55-.38 0-.19-.01-.82-.01-1.49-2.01.37-2.53-.49-2.69-.94-.09-.23-.48-.94-.82-1.13-.28-.15-.68-.52-.01-.53.63-.01 1.08.58 1.23.82.72 1.21 1.87.87 2.33.66.07-.52.28-.87.51-1.07-1.78-.2-3.64-.89-3.64-3.95 0-.87.31-1.59.82-2.15-.08-.2-.36-1.02.08-2.12 0 0 .67-.21 2.2.82.64-.18 1.32-.27 2-.27.68 0 1.36.09 2 .27 1.53-1.04 2.2-.82 2.2-.82.44 1.1.16 1.92.08 2.12.51.56.82 1.27.82 2.15 0 3.07-1.87 3.75-3.65 3.95.29.25.54.73.54 1.48 0 1.07-.01 1.93-.01 2.2 0 .21.15.46.55.38A8.013 8.013 0 0016 8c0-4.42-3.58-8-8-8z" fill-rule="evenodd"/>
    </symbol>

    <symbol id="icon-stop" viewBox="0 0 16 16">
        <path d="M4.47.22A.75.75 0 015 0h6a.75.75 0 01.53.22l4.25 4.25c.141.14.22.331.22.53v6a.75.75 0 01-.22.53l-4.25 4.25A.75.75 0 0111 16H5a.75.75 0 01-.53-.22L.22 11.53A.75.75 0 010 11V5a.75.75 0 01.22-.53L4.47.22zm.84 1.28L1.5 5.31v5.38l3.81 3.81h5.38l3.81-3.81V5.31L10.69 1.5H5.31zM8 4a.75.75 0 01.75.75v3.5a.75.75 0 01-1.5 0v-3.5A.75.75 0 018 4zm0 8a1 1 0 100-2 1 1 0 000 2z" fill-rule="evenodd"/>
    </symbol>

    <symbol id="icon-tasklist" viewBox="0 0 16 16">
        <path d="M2.5 2.75a.25.25 0 01.25-.25h10.5a.25.25 0 01.25.25v10.5a.25.25 0 01-.25.25H2.75a.25.25 0 01-.25-.25V2.75zM2.75 1A1.75 1.75 0 001 2.75v10.5c0 .966.784 1.75 1.75 1.75h10.5A1.75 1.75 0 0015 13.25V2.75A1.75 1.75 0 0013.25 1H2.75zm9.03 5.28a.75.75 0 00-1.06-1.06L6.75 9.19 5.28 7.72a.75.75 0 00-1.06 1.06l2 2a.75.75 0 001.06 0l4.5-4.5z" fill-rule="evenodd"/>
    </symbol>

    <!-- icon-tasklist-unchecked was derived from tasklist and added to this set -->
    <symbol id="icon-tasklist-unchecked" viewBox="0 0 16 16">
        <path d="m2.75 1a1.75 1.75 0 0 0-1.75 1.75v10.5c0 0.966 0.784 1.75 1.75 1.75h10.5a1.75 1.75 0 0 0 1.75-1.75v-10.5a1.75 1.75 0 0 0-1.75-1.75h-10.5zm-0.013672 1.5a0.25 0.25 0 0 1 0.013672 0h10.5a0.25 0.25 0 0 1 0.25 0.25v10.5a0.25 0.25 0 0 1-0.25 0.25h-10.5a0.25 0.25 0 0 1-0.25-0.25v-10.5a0.25 0.25 0 0 1 0.23633-0.25z" fill-rule="evenodd"/>
    </symbol>

    <symbol id="icon-triangle-down" viewBox="0 0 16 16">
        <path d="M4.427 7.427l3.396 3.396a.25.25 0 00.354 0l3.396-3.396A.25.25 0 0011.396 7H4.604a.25.25 0 00-.177.427z" fill-rule="evenodd"/>
    </symbol>

    <symbol id="icon-triangle-right" viewBox="0 0 16 16">
        <path d="M6.427 4.427l3.396 3.396a.25.25 0 010 .354l-3.396 3.396A.25.25 0 016 11.396V4.604a.25.25 0 01.427-.177z" fill-rule="evenodd"/>
    </symbol>

    <!-- icon-mark-gitlab imported from GitLab Press Kit: https://about.gitlab.com/press/press-kit/ -->
    <symbol id="icon-mark-gitlab" viewBox="0 0 16 16">
        <path d="M15.734 6.395l-.023-.057L13.534.654a.568.568 0 00-.224-.27.583.583 0 00-.667.036.583.583 0 00-.193.294l-1.47 4.498H5.024L3.555.714a.572.572 0 00-.193-.295.572.572 0 00-.89.234L.288 6.336l-.022.057a4.044 4.044 0 001.342 4.674l.007.006.02.014 3.318 2.484 1.64 1.242 1 .755a.672.672 0 00.814 0l1-.755 1.64-1.242 3.338-2.5.008-.006a4.046 4.046 0 001.34-4.669z"/>
    </symbol>

    <symbol id="icon-tag" viewBox="0 0 16 16">
        <path d="M1 7.775V2.75C1 1.784 1.784 1 2.75 1h5.025c.464 0 .91.184 1.238.513l6.25 6.25a1.75 1.75 0 0 1 0 2.474l-5.026 5.026a1.75 1.75 0 0 1-2.474 0l-6.25-6.25A1.752 1.752 0 0 1 1 7.775Zm1.5 0c0 .066.026.13.073.177l6.25 6.25a.25.25 0 0 0 .354 0l5.025-5.025a.25.25 0 0 0 0-.354l-6.25-6.25a.25.25 0 0 0-.177-.073H2.75a.25.25 0 0 0-.25.25ZM6 5a1 1 0 1 1 0 2 1 1 0 0 1 0-2Z"/>
    </symbol>

    <symbol id="icon-seealso" viewBox="0 0 16 16">
        <path d="M2 1.75C2 .784 2.784 0 3.75 0h5.586c.464 0 .909.184 1.237.513l2.914 2.914c.329.328.513.773.513 1.237v8.586A1.75 1.75 0 0 1 12.25 15h-7a.75.75 0 0 1 0-1.5h7a.25.25 0 0 0 .25-.25V6H9.75A1.75 1.75 0 0 1 8 4.25V1.5H3.75a.25.25 0 0 0-.25.25V4.5a.75.75 0 0 1-1.5 0Zm-.5 10.487v1.013a.75.75 0 0 1-1.5 0v-1.012a3.748 3.748 0 0 1 3.77-3.749L4 8.49V6.573a.25.25 0 0 1 .42-.183l2.883 2.678a.25.25 0 0 1 0 .366L4.42 12.111a.25.25 0 0 1-.42-.183V9.99l-.238-.003a2.25 2.25 0 0 0-2.262 2.25Zm8-10.675V4.25c0 .138.112.25.25.25h2.688l-.011-.013-2.914-2.914-.013-.011Z"/>
    </symbol>

    <symbol id="icon-megaphone" viewBox="0 0 16 16">
        <path d="M3.25 9a.75.75 0 0 1 .75.75c0 2.142.456 3.828.733 4.653a.122.122 0 0 0 .05.064.212.212 0 0 0 .117.033h1.31c.085 0 .18-.042.258-.152a.45.45 0 0 0 .075-.366A16.743 16.743 0 0 1 6 9.75a.75.75 0 0 1 1.5 0c0 1.588.25 2.926.494 3.85.293 1.113-.504 2.4-1.783 2.4H4.9c-.686 0-1.35-.41-1.589-1.12A16.4 16.4 0 0 1 2.5 9.75.75.75 0 0 1 3.25 9Z"/>
        <path d="M0 6a4 4 0 0 1 4-4h2.75a.75.75 0 0 1 .75.75v6.5a.75.75 0 0 1-.75.75H4a4 4 0 0 1-4-4Zm4-2.5a2.5 2.5 0 1 0 0 5h2v-5Z"/>
        <path d="M15.59.082A.75.75 0 0 1 16 .75v10.5a.75.75 0 0 1-1.189.608l-.002-.001h.001l-.014-.01a5.775 5.775 0 0 0-.422-.25 10.63 10.63 0 0 0-1.469-.64C11.576 10.484 9.536 10 6.75 10a.75.75 0 0 1 0-1.5c2.964 0 5.174.516 6.658 1.043.423.151.787.302 1.092.443V2.014c-.305.14-.669.292-1.092.443C11.924 2.984 9.713 3.5 6.75 3.5a.75.75 0 0 1 0-1.5c2.786 0 4.826-.484 6.155-.957.665-.236 1.154-.47 1.47-.64.144-.077.284-.161.421-.25l.014-.01a.75.75 0 0 1 .78-.061Z"/>
    </symbol>

    <symbol id="icon-zap" viewBox="0 0 16 16">
        <path d="M9.504.43a1.516 1.516 0 0 1 2.437 1.713L10.415 5.5h2.123c1.57 0 2.346 1.909 1.22 3.004l-7.34 7.142a1.249 1.249 0 0 1-.871.354h-.302a1.25 1.25 0 0 1-1.157-1.723L5.633 10.5H3.462c-1.57 0-2.346-1.909-1.22-3.004L9.503.429Zm1.047 1.074L3.286 8.571A.25.25 0 0 0 3.462 9H6.75a.75.75 0 0 1 .694 1.034l-1.713 4.188 6.982-6.793A.25.25 0 0 0 12.538 7H9.25a.75.75 0 0 1-.683-1.06l2.008-4.418.003-.006a.036.036 0 0 0-.004-.009l-.006-.006-.008-.001c-.003 0-.006.002-.009.004Z"/>
    </symbol>

    <symbol id="icon-experimental" viewBox="0 0 16 16">
        <path d="M5 5.782V2.5h-.25a.75.75 0 0 1 0-1.5h6.5a.75.75 0 0 1 0 1.5H11v3.282l3.666 5.76C15.619 13.04 14.543 15 12.767 15H3.233c-1.776 0-2.852-1.96-1.899-3.458Zm-2.4 6.565a.75.75 0 0 0 .633 1.153h9.534a.75.75 0 0 0 .633-1.153L12.225 10.5h-8.45ZM9.5 2.5h-3V6c0 .143-.04.283-.117.403L4.73 9h6.54L9.617 6.403A.746.746 0 0 1 9.5 6Z"/>
    </symbol>

    <symbol id="icon-error" viewBox="0 0 16 16">
        <path d="M2.344 2.343h-.001a8 8 0 0 1 11.314 11.314A8.002 8.002 0 0 1 .234 10.089a8 8 0 0 1 2.11-7.746Zm1.06 10.253a6.5 6.5 0 1 0 9.108-9.275 6.5 6.5 0 0 0-9.108 9.275ZM6.03 4.97 8 6.94l1.97-1.97a.749.749 0 0 1 1.275.326.749.749 0 0 1-.215.734L9.06 8l1.97 1.97a.749.749 0 0 1-.326 1.275.749.749 0 0 1-.734-.215L8 9.06l-1.97 1.97a.749.749 0 0 1-1.275-.326.749.749 0 0 1 .215-.734L6.94 8 4.97 6.03a.751.751 0 0 1 .018-1.042.751.751 0 0 1 1.042-.018Z"/>
    </symbol>

    <symbol id="icon-notimplemented" viewBox="0 0 16 16">
        <path d="M8.533.133a1.75 1.75 0 0 0-1.066 0l-2.091.67a.75.75 0 0 0 .457 1.428l2.09-.67a.25.25 0 0 1 .153 0l5.25 1.68a.25.25 0 0 1 .174.239V7c0 .233-.008.464-.025.694a.75.75 0 1 0 1.495.112c.02-.27.03-.538.03-.806V3.48a1.75 1.75 0 0 0-1.217-1.667L8.533.133ZM1 2.857l-.69-.5a.75.75 0 1 1 .88-1.214l14.5 10.5a.75.75 0 1 1-.88 1.214l-1.282-.928c-.995 1.397-2.553 2.624-4.864 3.608-.425.181-.905.18-1.329 0-2.447-1.042-4.049-2.356-5.032-3.855C1.32 10.182 1 8.566 1 7Zm1.5 1.086V7c0 1.358.275 2.666 1.057 3.86.784 1.194 2.121 2.34 4.366 3.297.05.02.106.02.153 0 2.127-.905 3.439-1.982 4.237-3.108Z"/>
    </symbol>

    <symbol id="icon-obsolete" viewBox="0 0 16 16">
        <path d="M7.467.133a1.748 1.748 0 0 1 1.066 0l5.25 1.68A1.75 1.75 0 0 1 15 3.48V7c0 1.566-.32 3.182-1.303 4.682-.983 1.498-2.585 2.813-5.032 3.855a1.697 1.697 0 0 1-1.33 0c-2.447-1.042-4.049-2.357-5.032-3.855C1.32 10.182 1 8.566 1 7V3.48a1.75 1.75 0 0 1 1.217-1.667Zm.61 1.429a.25.25 0 0 0-.153 0l-5.25 1.68a.25.25 0 0 0-.174.238V7c0 1.358.275 2.666 1.057 3.86.784 1.194 2.121 2.34 4.366 3.297a.196.196 0 0 0 .154 0c2.245-.956 3.582-2.104 4.366-3.298C13.225 9.666 13.5 8.36 13.5 7V3.48a.251.251 0 0 0-.174-.237l-5.25-1.68ZM8.75 4.75v3a.75.75 0 0 1-1.5 0v-3a.75.75 0 0 1 1.5 0ZM9 10.5a1 1 0 1 1-2 0 1 1 0 0 1 2 0Z"/>
    </symbol>

    <symbol id="icon-deprecated" viewBox="0 0 16 16">
        <path d="m8.533.133 5.25 1.68A1.75 1.75 0 0 1 15 3.48V7c0 1.566-.32 3.182-1.303 4.682-.983 1.498-2.585 2.813-5.032 3.855a1.697 1.697 0 0 1-1.33 0c-2.447-1.042-4.049-2.357-5.032-3.855C1.32 10.182 1 8.566 1 7V3.48a1.75 1.75 0 0 1 1.217-1.667l5.25-1.68a1.748 1.748 0 0 1 1.066 0Zm-.61 1.429.001.001-5.25 1.68a.251.251 0 0 0-.174.237V7c0 1.36.275 2.666 1.057 3.859.784 1.194 2.121 2.342 4.366 3.298a.196.196 0 0 0 .154 0c2.245-.957 3.582-2.103 4.366-3.297C13.225 9.666 13.5 8.358 13.5 7V3.48a.25.25 0 0 0-.174-.238l-5.25-1.68a.25.25 0 0 0-.153 0ZM6.78 5.22 8 6.44l1.22-1.22a.749.749 0 0 1 1.275.326.749.749 0 0 1-.215.734L9.06 7.5l1.22 1.22a.749.749 0 0 1-.326 1.275.749.749 0 0 1-.734-.215L8 8.56 6.78 9.78a.751.751 0 0 1-1.042-.018.751.751 0 0 1-.018-1.042L6.94 7.5 5.72 6.28a.749.749 0 0 1 .326-1.275.749.749 0 0 1 .734.215Z"/>
    </symbol>

    <symbol id="icon-alt" viewBox="0 0 16 16">
        <path d="M7.75 0a.75.75 0 0 1 .75.75V3h3.634c.414 0 .814.147 1.13.414l2.07 1.75a1.75 1.75 0 0 1 0 2.672l-2.07 1.75a1.75 1.75 0 0 1-1.13.414H8.5v5.25a.75.75 0 0 1-1.5 0V10H2.75A1.75 1.75 0 0 1 1 8.25v-3.5C1 3.784 1.784 3 2.75 3H7V.75A.75.75 0 0 1 7.75 0Zm4.384 8.5a.25.25 0 0 0 .161-.06l2.07-1.75a.248.248 0 0 0 0-.38l-2.07-1.75a.25.25 0 0 0-.161-.06H2.75a.25.25 0 0 0-.25.25v3.5c0 .138.112.25.25.25h9.384Z"/>
    </symbol>

    <symbol id="icon-explain" viewBox="0 0 16 16">
        <path d="M1 2.75C1 1.784 1.784 1 2.75 1h10.5c.966 0 1.75.784 1.75 1.75v7.5A1.75 1.75 0 0 1 13.25 12H9.06l-2.573 2.573A1.458 1.458 0 0 1 4 13.543V12H2.75A1.75 1.75 0 0 1 1 10.25Zm1.75-.25a.25.25 0 0 0-.25.25v7.5c0 .138.112.25.25.25h2a.75.75 0 0 1 .75.75v2.19l2.72-2.72a.749.749 0 0 1 .53-.22h4.5a.25.25 0 0 0 .25-.25v-7.5a.25.25 0 0 0-.25-.25Z"/>
    </symbol>

    <symbol id="icon-debug" viewBox="0 0 16 16">
        <path d="M4.72.22a.75.75 0 0 1 1.06 0l1 .999a3.488 3.488 0 0 1 2.441 0l.999-1a.748.748 0 0 1 1.265.332.75.75 0 0 1-.205.729l-.775.776c.616.63.995 1.493.995 2.444v.327c0 .1-.009.197-.025.292.408.14.764.392 1.029.722l1.968-.787a.75.75 0 0 1 .556 1.392L13 7.258V9h2.25a.75.75 0 0 1 0 1.5H13v.5c0 .409-.049.806-.141 1.186l2.17.868a.75.75 0 0 1-.557 1.392l-2.184-.873A4.997 4.997 0 0 1 8 16a4.997 4.997 0 0 1-4.288-2.427l-2.183.873a.75.75 0 0 1-.558-1.392l2.17-.868A5.036 5.036 0 0 1 3 11v-.5H.75a.75.75 0 0 1 0-1.5H3V7.258L.971 6.446a.75.75 0 0 1 .558-1.392l1.967.787c.265-.33.62-.583 1.03-.722a1.677 1.677 0 0 1-.026-.292V4.5c0-.951.38-1.814.995-2.444L4.72 1.28a.75.75 0 0 1 0-1.06Zm.53 6.28a.75.75 0 0 0-.75.75V11a3.5 3.5 0 1 0 7 0V7.25a.75.75 0 0 0-.75-.75ZM6.173 5h3.654A.172.172 0 0 0 10 4.827V4.5a2 2 0 1 0-4 0v.327c0 .096.077.173.173.173Z"/>
    </symbol>

    <use href="#icon-alert" width="16" height="16" x="0" y="0"/>
    <view id="view-alert" viewBox="0 0 16 16"/>

    <use href="#icon-chevron-down" width="16" height="16" x="0" y="16"/>
    <view id="view-chevron-down" viewBox="0 16 16 16"/>

    <use href="#icon-chevron-right" width="16" height="16" x="0" y="32"/>
    <view id="view-chevron-right" viewBox="0 32 16 16"/>

    <use href="#icon-clippy" width="16" height="16" x="0" y="48"/>
    <view id="view-clippy" viewBox="0 48 16 16"/>

    <use href="#icon-comment-discussion" width="16" height="16" x="0" y="64"/>
    <view id="view-comment-discussion" viewBox="0 64 16 16"/>

    <use href="#icon-flame" width="16" height="16" x="0" y="80"/>
    <view id="view-flame" viewBox="0 80 16 16"/>

    <use href="#icon-hash" width="16" height="16" x="0" y="96"/>
    <view id="view-hash" viewBox="0 96 16 16"/>

    <use href="#icon-info" width="16" height="16" x="0" y="112"/>
    <view id="view-info" viewBox="0 112 16 16"/>

    <use href="#icon-light-bulb" width="16" height="16" x="0" y="128"/>
    <view id="view-light-bulb" viewBox="0 128 16 16"/>

    <use href="#icon-mail" width="16" height="16" x="0" y="144"/>
    <view id="view-mail" viewBox="0 144 16 16"/>

    <use href="#icon-mark-github" width="16" height="16" x="0" y="160"/>
    <view id="view-mark-github" viewBox="0 160 16 16"/>

    <use href="#icon-mark-gitlab" width="16" height="16" x="0" y="176"/>
    <view id="view-mark-gitlab" viewBox="0 176 16 16"/>

    <use href="#icon-stop" width="16" height="16" x="0" y="192"/>
    <view id="view-stop" viewBox="0 192 16 16"/>

    <use href="#icon-tasklist" width="16" height="16" x="0" y="208"/>
    <view id="view-tasklist" viewBox="0 208 16 16"/>

    <use href="#icon-tasklist-unchecked" width="16" height="16" x="0" y="224"/>
    <view id="view-tasklist-unchecked" viewBox="0 224 16 16"/>

    <use href="#icon-triangle-down" width="16" height="16" x="0" y="240"/>
    <view id="view-triangle-down" viewBox="0 240 16 16"/>

    <use href="#icon-triangle-right" width="16" height="16" x="0" y="256"/>
    <view id="view-triangle-right" viewBox="0 256 16 16"/>

    <use href="#icon-tag" width="16" height="16" x="0" y="272"/>
    <view id="view-tag" viewBox="0 272 16 16"/>

    <use href="#icon-seealso" width="16" height="16" x="0" y="288"/>
    <view id="view-seealso" viewBox="0 288 16 16"/>

    <use href="#icon-megaphone" width="16" height="16" x="0" y="304"/>
    <view id="view-megaphone" viewBox="0 304 16 16"/>

    <use href="#icon-zap" width="16" height="16" x="0" y="320"/>
    <view id="view-zap" viewBox="0 320 16 16"/>

    <use href="#icon-experimental" width="16" height="16" x="0" y="336"/>
    <view id="view-experimental" viewBox="0 336 16 16"/>

    <use href="#icon-error" width="16" height="16" x="0" y="352"/>
    <view id="view-error" viewBox="0 352 16 16"/>

    <use href="#icon-notimplemented" width="16" height="16" x="0" y="368"/>
    <view id="view-notimplemented" viewBox="0 368 16 16"/>

    <use href="#icon-obsolete" width="16" height="16" x="0" y="384"/>
    <view id="view-obsolete" viewBox="0 384 16 16"/>

    <use href="#icon-deprecated" width="16" height="16" x="0" y="400"/>
    <view id="view-deprecated" viewBox="0 400 16 16"/>

    <use href="#icon-alt" width="16" height="16" x="0" y="416"/>
    <view id="view-alt" viewBox="0 416 16 16"/>

    <use href="#icon-explain" width="16" height="16" x="0" y="432"/>
    <view id="view-explain" viewBox="0 432 16 16"/>

    <use href="#icon-debug" width="16" height="16" x="0" y="448"/>
    <view id="view-debug" viewBox="0 448 16 16"/>

</svg>
