<?xml version="1.0" encoding="UTF-8" standalone="no"?><!DOCTYPE svg PUBLIC "-//W3C//DTD SVG 1.1//EN" "http://www.w3.org/Graphics/SVG/1.1/DTD/svg11.dtd"><svg width="100%" height="100%" viewBox="0 0 194 37" version="1.1" xmlns="http://www.w3.org/2000/svg" xmlns:xlink="http://www.w3.org/1999/xlink" xml:space="preserve" xmlns:serif="http://www.serif.com/" style="fill-rule:evenodd;clip-rule:evenodd;stroke-linejoin:round;stroke-miterlimit:2;"><rect id="Artboard1" x="0" y="-0" width="193.278" height="36.768" style="fill:none;"/><clipPath id="_clip1"><rect id="Artboard11" serif:id="Artboard1" x="0" y="-0" width="193.278" height="36.768"/></clipPath><g clip-path="url(#_clip1)"><path d="M72.803,3.755l-3.423,9.407l-1.358,0l-2.444,-6.675c-0.796,2.193 -1.659,4.492 -2.442,6.675l-1.347,0l-3.421,-9.407l1.828,0l2.274,6.205l2.272,-6.205l1.685,0l2.274,6.205l2.272,-6.205l1.83,0Zm27.217,2.548l-1.738,-0l0,-0.732c0,-0.052 -0.039,-0.091 -0.091,-0.091l-5.761,-0c-0.053,-0 -0.092,0.039 -0.092,0.091l0,5.775c0,0.052 0.039,0.091 0.092,0.091l5.761,0c0.052,0 0.091,-0.039 0.091,-0.091l0,-1.776l-2.129,-0l0,-1.725l3.867,-0l0,3.501c0,1.006 -0.823,1.816 -1.829,1.816l-5.761,0c-1.006,0 -1.816,-0.81 -1.816,-1.816l0,-5.775c0,-1.005 0.81,-1.816 1.816,-1.816l5.761,-0c1.006,-0 1.829,0.811 1.829,1.816l0,0.732Zm14.159,-0.823l-6.911,-0l-0,2.117l5.565,-0l-0,1.724l-5.565,-0l-0,2.117l6.911,-0l-0,1.724l-8.649,-0l-0,-9.406l8.649,-0l-0,1.724Zm12.867,-1.725l1.737,0l0,9.407l-1.881,0l-5.8,-6.898l0,6.898l-1.725,0l0,-9.407l1.882,0l5.787,6.898l0,-6.898Zm8.533,0l-0,9.407l-1.724,0l-0,-9.407l1.724,0Zm12.983,0l1.738,0l0,9.407l-1.882,0l-5.799,-6.898l0,6.898l-1.726,0l0,-9.407l1.882,0l5.787,6.898l0,-6.898Zm16.274,2.548l-1.737,-0l0,-0.732c0,-0.052 -0.04,-0.091 -0.092,-0.091l-5.762,-0c-0.051,-0 -0.091,0.039 -0.091,0.091l0,5.775c0,0.052 0.04,0.091 0.091,0.091l5.762,0c0.052,0 0.092,-0.039 0.092,-0.091l0,-1.776l-2.13,-0l0,-1.725l3.867,-0l0,3.501c0,1.006 -0.823,1.816 -1.829,1.816l-5.762,0c-1.005,0 -1.816,-0.81 -1.816,-1.816l0,-5.775c0,-1.005 0.811,-1.816 1.816,-1.816l5.762,-0c1.006,-0 1.829,0.811 1.829,1.816l0,0.732Zm13.988,-0.823l-6.91,-0l-0,2.117l5.566,-0l-0,1.724l-5.566,-0l-0,2.117l6.91,-0l-0,1.724l-8.648,-0l-0,-9.406l8.648,-0l-0,1.724Zm12.705,-1.725l1.737,0l-0,9.407l-1.88,0l-5.8,-6.898l-0,6.898l-1.726,0l-0,-9.407l1.882,0l5.787,6.898l-0,-6.898Zm-107.328,1.816l2.727,7.591l-1.749,-0l-1.155,-3.162l-6.091,-0l-1.142,3.162l-1.784,-0l2.727,-7.591c0.377,-1.109 0.81,-1.816 1.815,-1.816l2.836,-0c1.005,-0 1.438,0.707 1.816,1.816Zm-5.684,2.705l4.925,-0l-0.943,-2.705c-0.028,-0.067 -0.039,-0.091 -0.091,-0.091l-2.859,-0c-0.052,-0 -0.067,0.028 -0.091,0.091l-0.941,2.705Z" style="fill:#004a6d;"/><path d="M63.753,20.576l0.835,-0l0,4.559c0,0.559 -0.449,1.007 -1.005,1.007l-3.556,-0c-0.556,-0 -1.005,-0.448 -1.005,-1.007l0,-4.559l0.835,-0l0,4.559c0,0.094 0.077,0.17 0.17,0.17l3.556,-0c0.093,-0 0.17,-0.076 0.17,-0.17l0,-4.559Zm7.626,-0l0.835,-0l0,5.566l-0.989,-0l-3.742,-4.453l0,4.453l-0.835,-0l0,-5.566l0.99,-0l3.741,4.452l0,-4.452Zm3.754,-0.001l-0,5.566l-0.834,0l-0,-5.566l0.834,0Zm7.239,0.001l0.959,-0l-3.208,5.566l-0.835,-0l-3.216,-5.566l0.967,-0l2.666,4.621l2.667,-4.621Zm6.825,0.834l-4.267,-0l-0,1.53l3.433,-0l-0,0.838l-3.433,-0l-0,1.527l4.267,-0l-0,0.837l-5.1,-0l-0,-5.566l5.1,-0l-0,0.834Zm7.572,1.74c-0,0.547 -0.448,1.006 -1.005,1.006l-0.564,0l1.569,1.868l-0,0.117l-0.989,0l-1.67,-1.985l-1.901,0c-0.062,0 -0.116,-0.011 -0.17,-0.016l-0,2.001l-0.835,0l-0,-5.558l4.56,0c0.557,0 1.005,0.457 1.005,1.005l-0,1.562Zm-4.73,-1.733l-0,1.901l3.725,0.002c0.093,0 0.171,-0.077 0.171,-0.17l-0,-1.562c-0,-0.093 -0.078,-0.169 -0.171,-0.169l-3.725,-0.002Zm50.082,1.733c0,0.547 -0.448,1.006 -1.005,1.006l-0.564,0l1.569,1.868l0,0.117l-0.989,0l-1.67,-1.985l-1.901,0c-0.062,0 -0.116,-0.011 -0.17,-0.016l0,2.001l-0.835,0l0,-5.558l4.56,0c0.557,0 1.005,0.457 1.005,1.005l0,1.562Zm-4.73,-1.733l0,1.901l3.725,0.002c0.093,0 0.171,-0.077 0.171,-0.17l0,-1.562c0,-0.093 -0.078,-0.169 -0.171,-0.169l-3.725,-0.002Zm41.112,1.733c0,0.547 -0.448,1.006 -1.005,1.006l-0.565,0l1.57,1.868l0,0.117l-0.99,0l-1.669,-1.985l-1.902,0c-0.061,0 -0.115,-0.011 -0.169,-0.016l0,2.001l-0.835,0l0,-5.558l4.56,0c0.557,0 1.005,0.457 1.005,1.005l0,1.562Zm-4.73,-1.733l0,1.901l3.725,0.002c0.093,0 0.171,-0.077 0.171,-0.17l0,-1.562c0,-0.093 -0.078,-0.169 -0.171,-0.169l-3.725,-0.002Zm-69.448,0.488l-0.834,0l-0,-0.326c-0,-0.091 -0.077,-0.17 -0.17,-0.17l-3.556,0c-0.093,0 -0.169,0.079 -0.169,0.17l-0,1.192c-0,0.093 0.076,0.168 0.169,0.168l3.556,0c0.557,0 1.004,0.451 1.004,1.007l-0,1.189c-0,0.558 -0.447,1.006 -1.004,1.006l-3.556,0c-0.556,0 -1.004,-0.448 -1.004,-1.006l-0,-0.324l0.835,0l-0,0.324c-0,0.094 0.076,0.17 0.169,0.17l3.556,0c0.093,0 0.17,-0.076 0.17,-0.17l-0,-1.189c-0,-0.093 -0.077,-0.169 -0.17,-0.169l-3.556,0c-0.556,0 -1.004,-0.45 -1.004,-1.006l-0,-1.192c-0,-0.555 0.448,-1.004 1.004,-1.004l3.556,0c0.557,0 1.004,0.449 1.004,1.004l-0,0.326Zm2.88,-1.33l-0,5.566l-0.834,0l-0,-5.566l0.834,0Zm6.937,0.001l-0,0.834l-2.365,-0l-0,4.732l-0.834,-0l-0,-4.732l-2.366,-0l-0,-0.834l5.565,-0Zm6.55,-0l-2.568,3.478l-0,2.088l-0.834,-0l-0,-2.088l-2.566,-3.478l0.982,-0l2.001,2.535l1.994,-2.535l0.991,-0Zm28.575,0.834l-4.266,-0l0,1.53l3.432,-0l0,0.838l-3.432,-0l0,1.527l4.266,-0l0,0.837l-5.101,-0l0,-5.566l5.101,-0l0,0.834Zm7.264,0.495l-0.835,0l-0,-0.326c-0,-0.091 -0.078,-0.17 -0.171,-0.17l-3.554,0c-0.094,0 -0.17,0.079 -0.17,0.17l-0,1.192c-0,0.093 0.076,0.168 0.17,0.168l3.554,0c0.557,0 1.006,0.451 1.006,1.007l-0,1.189c-0,0.558 -0.449,1.006 -1.006,1.006l-3.554,0c-0.559,0 -1.005,-0.448 -1.005,-1.006l-0,-0.324l0.835,0l-0,0.324c-0,0.094 0.076,0.17 0.17,0.17l3.554,0c0.093,0 0.171,-0.076 0.171,-0.17l-0,-1.189c-0,-0.093 -0.078,-0.169 -0.171,-0.169l-3.554,0c-0.559,0 -1.005,-0.45 -1.005,-1.006l-0,-1.192c-0,-0.555 0.446,-1.004 1.005,-1.004l3.554,0c0.557,0 1.006,0.449 1.006,1.004l-0,0.326Zm7.153,-0.495l-4.265,-0l0,1.53l3.43,-0l0,0.838l-3.43,-0l0,1.527l4.265,-0l0,0.837l-5.1,-0l0,-5.566l5.1,-0l0,0.834Zm5.341,-0.834c0.557,0 0.882,0.425 1.095,1.004l1.616,4.561l-0.877,0l-0.729,-1.949l-3.863,0l-0.714,1.949l-0.837,0l1.682,-4.561c0.216,-0.622 0.449,-1.004 1.005,-1.004l1.622,0Zm0.859,2.781l-0.69,-1.777c-0.041,-0.106 -0.077,-0.171 -0.169,-0.171l-1.622,0c-0.093,0 -0.119,0.051 -0.169,0.171l-0.667,1.777l3.317,0Zm11.518,-1.947c-0.092,-0 -0.169,0.079 -0.169,0.17l-0,3.555c-0,0.095 0.077,0.17 0.169,0.17l4.545,-0l-0,0.837l-4.545,-0c-0.556,-0 -1.005,-0.448 -1.005,-1.007l-0,-3.555c-0,-0.555 0.449,-1.004 1.005,-1.004l4.545,-0l-0,0.834l-4.545,-0Zm11.876,-0.834l-0,5.566l-0.834,-0l-0,-2.364l-4.029,-0l-0,2.364l-0.834,-0l-0,-5.566l0.834,-0l-0,2.364l4.029,-0l-0,-2.364l0.834,-0Zm-61.801,4.742l-0,0.827l-1.039,-0.656l-0.003,-0.001c-0.141,0.384 -0.509,0.657 -0.944,0.657l-3.555,0c-0.558,0 -1.005,-0.448 -1.005,-1.007l-0,-1.662c-0,-0.557 0.448,-0.723 1.006,-0.723l0.154,0.001c-0.273,-0.16 -0.407,-0.259 -0.432,-0.544l-0,-0.627c-0,-0.556 0.446,-1.004 1.003,-1.004l2.055,0c0.495,0 0.921,0.362 1.004,0.834l-0,0.548l-0.833,0l-0,-0.37c-0,-0.093 -0.077,-0.169 -0.171,-0.169l-2.055,0c-0.093,0 -0.171,0.076 -0.171,0.169l-0,0.512c0.001,0.064 0.038,0.117 0.09,0.146l0.016,0.01c0.02,0.008 3.064,1.921 3.064,1.921l-0,-1.071l0.836,0l-0,1.595l0.98,0.614Zm-1.816,-0.178l-0,-0.142l-2.677,-1.69l-1.011,0c-0.098,0 -0.166,0.044 -0.194,0.104c-0.008,0.02 -0.013,0.042 -0.013,0.066l0.002,1.662c-0,0.094 0.077,0.17 0.17,0.17l3.553,0c0.094,0 0.17,-0.077 0.17,-0.17Z" style="fill:#1ea233;"/><path d="M52.98,26.215c0.535,-0.497 -1.206,-1.083 -1.206,-1.083c0,0 -1.862,-0.859 -9.26,-1.462l0,2.545l-11.442,0l0,-2.919c-2.28,-0.062 -6.782,-0.034 -9.925,-0.001l0,2.92l-11.405,0l0,-2.549c-4.957,0.335 -8.221,0.977 -8.221,0.977c0,0 -0.548,0.456 -0.618,0.503c-0.615,0.414 0.015,0.567 0.433,0.774c0.165,0.082 0.174,0.126 0.115,0.295c-0.046,0.133 -0.427,0.21 -0.353,0.44c0.152,0.479 0.844,0.02 0.801,0.653c-0.052,0.743 -1.716,0.323 -1.884,1.016c-0.131,0.546 0.615,0.045 0.606,1.096c-0.009,1.047 0.758,2.096 2.91,2.629c0.509,0.126 2.907,0.086 1.672,0.798c-0.146,0.085 -0.642,0.072 -0.806,0.089c-0.238,0.024 -0.778,-0.001 -0.929,0.216c-0.233,0.334 0.263,0.325 0.187,0.636c-0.28,0.036 -0.88,0.028 -0.617,0.504c0.133,0.241 0.576,0.373 0.827,0.36c1.34,-0.073 1.155,0.046 1.569,0.092c-0.745,0.144 -1.422,0.919 1.391,0.844c0.064,0.426 0.821,0.385 1.082,0.328c17.519,-3.883 25.095,-2.227 25.146,-3.304c-0.244,-0.527 -2.714,-0.471 -3.122,-0.49c-1.602,-0.076 -5.01,0.092 -4.812,-0.318c0.088,-0.96 17.847,-0.722 15.767,-0.125c-0.095,0.027 -1.342,0.234 -1.497,0.316c-0.966,0.515 2.722,0.617 3.105,0.651c0.442,0.041 1.543,0.008 1.346,0.485c-0.062,0.147 -1.383,-0.014 -1.328,0.198c0.046,0.174 0.79,0.079 0.868,0.201c0.535,0.841 -6.53,0.423 -10.185,0.502c-1.069,0.023 -3.165,0.141 -4.259,0.289c-1.846,0.25 -0.272,0.68 2.603,0.946c1.54,0.143 9.458,0.778 16.18,1.661c2.019,0.366 2.622,-0.626 2.169,-0.896c-0.257,-0.153 0.85,-0.713 -0.388,-1.241c-0.786,-0.335 -0.139,-0.472 -0.091,-0.456c0.114,0.036 1.713,0.417 1.121,-0.121c-0.381,-0.347 0.261,-0.144 0.377,-0.152c1.491,-0.114 1.144,-0.676 1.238,-0.584c-0.445,-0.436 0.753,-0.751 0.477,-1.722c-0.081,-0.285 -1.795,-0.228 -0.669,-0.463c0.128,-0.027 1.694,0.015 0.244,-0.837c-0.336,-0.197 -0.657,-0.206 -1.138,-0.315c-1.075,-0.244 -0.268,-0.784 0.266,-0.695c0.654,0.109 1.312,-0.325 1.2,-0.964c-0.137,-0.867 -0.432,-2.096 0.455,-2.267" style="fill:#004a6d;fill-rule:nonzero;"/><path d="M11.444,0.24l-0,25.975l9.704,-0l-0,-16.19l9.925,-0l-0,16.19l9.704,-0l-0,-25.975l-29.333,-0Z" style="fill:#1ea233;fill-rule:nonzero;"/></g></svg>